<?xml version="1.0" encoding="UTF-8" standalone="no"?>
<!-- Created with Inkscape (http://www.inkscape.org/) -->

<svg
   xmlns:dc="http://purl.org/dc/elements/1.1/"
   xmlns:cc="http://creativecommons.org/ns#"
   xmlns:rdf="http://www.w3.org/1999/02/22-rdf-syntax-ns#"
   xmlns:svg="http://www.w3.org/2000/svg"
   xmlns="http://www.w3.org/2000/svg"
   xmlns:sodipodi="http://sodipodi.sourceforge.net/DTD/sodipodi-0.dtd"
   xmlns:inkscape="http://www.inkscape.org/namespaces/inkscape"
   width="512mm"
   height="512mm"
   viewBox="0 0 512 512"
   version="1.1"
   id="svg8"
   inkscape:version="0.92.4 (5da689c313, 2019-01-14)"
   sodipodi:docname="bumcss-logo.svg">
  <defs
     id="defs2" />
  <sodipodi:namedview
     id="base"
     pagecolor="#ffffff"
     bordercolor="#666666"
     borderopacity="1.0"
     inkscape:pageopacity="0.0"
     inkscape:pageshadow="2"
     inkscape:zoom="0.24748737"
     inkscape:cx="-460.87057"
     inkscape:cy="896.8082"
     inkscape:document-units="px"
     inkscape:current-layer="layer1"
     showgrid="false"
     inkscape:window-width="1920"
     inkscape:window-height="1017"
     inkscape:window-x="-8"
     inkscape:window-y="-8"
     inkscape:window-maximized="1" />
  <metadata
     id="metadata5">
    <rdf:RDF>
      <cc:Work
         rdf:about="">
        <dc:format>image/svg+xml</dc:format>
        <dc:type
           rdf:resource="http://purl.org/dc/dcmitype/StillImage" />
        <dc:title></dc:title>
      </cc:Work>
    </rdf:RDF>
  </metadata>
  <g
     inkscape:label="Ebene 1"
     inkscape:groupmode="layer"
     id="layer1"
     transform="translate(0,215)">
    <ellipse
       id="path3725"
       cx="264.9928"
       cy="-28.070633"
       rx="25.324406"
       ry="26.836309"
       style="stroke-width:0.26458332" />
    <ellipse
       id="path3757"
       cx="262.51236"
       cy="20.303957"
       rx="32.505951"
       ry="17.764881"
       style="stroke-width:0.26458332"
       transform="rotate(-15.316646)" />
    <ellipse
       id="path3763"
       cx="257.49323"
       cy="-8.7096071"
       rx="21.544643"
       ry="9.4494047"
       style="stroke-width:0.26458332"
       transform="rotate(-12.627067)"
       inkscape:transform-center-x="-5.3453905"
       inkscape:transform-center-y="-1.6036314" />
    <ellipse
       id="path3769"
       cx="264.80936"
       cy="49.177322"
       rx="43.467262"
       ry="57.452377"
       style="stroke-width:0.26458332" />
    <rect
       id="rect3783"
       width="15.358777"
       height="54.433403"
       x="254.46545"
       y="67.036255"
       style="stroke-width:0.15045887"
       transform="matrix(0.99453865,0.10436897,-0.21767169,0.97602205,0,0)" />
    <rect
       id="rect3783-8"
       width="14.790397"
       height="59.544674"
       x="187.06577"
       y="183.18246"
       style="stroke-width:0.15442519"
       transform="matrix(0.92402779,-0.38232532,0.54315055,0.83963533,0,0)" />
    <rect
       id="rect3783-8-7"
       width="17.134315"
       height="82.895523"
       x="218.74477"
       y="185.50233"
       style="stroke-width:0.19611268"
       transform="matrix(0.79563514,-0.60577613,0.56285983,0.82655237,0,0)" />
    <rect
       id="rect3783-8-6"
       width="14.444139"
       height="77.750481"
       x="317.07938"
       y="-3.1414106"
       style="stroke-width:0.174383"
       transform="matrix(0.99989953,0.01417498,0.09722451,0.99526248,0,0)" />
    <rect
       id="rect3831"
       width="189.74405"
       height="6.8035712"
       x="123.04543"
       y="-87.696884"
       style="stroke-width:0.26458332"
       transform="rotate(18.659149)" />
    <ellipse
       id="path3833"
       cx="149.90459"
       cy="9.4898367"
       rx="24.568453"
       ry="46.764427"
       style="stroke-width:0.26458332" />
    <rect
       id="rect3783-8-69"
       width="14.877784"
       height="61.418728"
       x="331.55588"
       y="-22.552231"
       style="stroke-width:0.1572991"
       transform="matrix(0.90342958,0.42873651,-0.23854195,0.97113219,0,0)" />
    <rect
       id="rect3783-89"
       width="13.993305"
       height="53.133396"
       x="268.07904"
       y="31.301657"
       style="stroke-width:0.14188965"
       transform="matrix(0.9071369,0.42083566,-0.44624181,0.89491242,0,0)" />
    <path
       id="path3880"
       d="m 282.38191,-23.472175 c 2.67168,-0.354891 5.35422,-0.680916 7.99126,-1.247529 1.55845,-0.404421 3.13574,-0.66379 4.74078,-0.762172 1.17795,-0.03359 2.24801,0.006 3.39778,-0.265922 0.98044,-0.216771 1.92297,-0.641321 2.80943,-1.111579 1.02055,-0.468513 2.13026,-0.671255 3.20823,-0.965557 1.56411,-0.388003 2.95722,-1.156075 4.38536,-1.872985 1.20761,-0.653285 2.62718,-0.803143 3.77518,-1.564013 0.13163,-0.07222 0.52494,-0.29165 0.39487,-0.216662 -21.57841,12.4412 16.23684,-9.477661 -5.49209,3.06252 0,0 7.41227,-2.919492 7.41227,-2.919492 v 0 c -23.13887,13.604513 16.1416,-9.433702 -8.51445,5.05528 -1.24468,0.509 -2.54569,0.877002 -3.73729,1.51225 -1.45592,0.729615 -2.93547,1.387253 -4.52154,1.784522 -1.06178,0.299696 -2.14726,0.528323 -3.12066,1.075365 -0.95078,0.411533 -1.9105,0.814977 -2.94611,0.955299 -1.13543,0.163502 -2.28727,0.06604 -3.42839,0.179872 -1.56295,0.145968 -3.09591,0.46514 -4.62928,0.795252 -2.68481,0.48459 -5.38992,0.852634 -8.09281,1.220568 0,0 6.36746,-4.715017 6.36746,-4.715017 z"
       inkscape:connector-curvature="0"
       style="stroke-width:0.26458332" />
    <path
       id="path3882"
       d="m 307.84872,-28.338712 c -1.76281,-0.02643 -3.52594,-0.0141 -5.28889,-0.0076 -1.40089,-0.05088 -2.27182,-0.735687 -2.77125,-2.001486 -0.24198,-0.978421 -0.0533,-1.832303 0.77092,-2.429668 4.03013,-2.757237 5.89354,-4.277617 9.87573,-4.488403 1.06924,-0.07335 2.10082,-0.05852 3.14241,0.185799 0.77861,0.315497 1.35255,0.91173 2.15127,1.177382 0.48501,0.277217 0.2427,0.151995 0.72551,0.378399 0,0 -6.6485,4.384916 -6.6485,4.384916 v 0 c -0.47506,-0.239056 -0.24236,-0.126584 -0.69749,-0.33863 -0.69835,-0.336936 -1.2886,-0.877644 -2.0583,-1.052456 -0.99452,-0.159375 -2.00531,-0.07374 -3.00631,-0.01402 -3.26022,0.347813 -7.58737,3.298674 3.93915,-3.103547 -0.78701,0.395256 -1.2785,0.385845 -1.23804,1.440572 0.37034,1.113115 1.12371,1.179189 2.21811,1.208963 1.76993,0.0066 3.54004,0.01857 5.30984,-0.0076 0,0 -6.42416,4.667432 -6.42416,4.667432 z"
       inkscape:connector-curvature="0"
       style="stroke-width:0.26458332" />
    <path
       id="path3884"
       d="m 315.95476,-34.945511 c 1.00975,1.336352 2.05647,2.709566 2.15106,4.431035 -0.10118,0.564065 -0.31708,1.354103 -0.86521,1.674791 -7.04792,4.123418 -4.51144,3.66934 -7.70581,4.168884 -1.04185,0.114286 -2.09224,0.09798 -3.13867,0.0939 -1.06302,-0.05472 -2.14654,0.09923 -3.19188,-0.121158 -0.88553,-0.112874 -1.49664,-0.782513 -2.25801,-1.16318 0,0 6.67475,-4.346599 6.67475,-4.346599 v 0 c 0.66265,0.407173 1.26826,0.882283 2.08227,0.924029 1.0386,0.0587 2.08066,0.01966 3.12047,0.03489 1.01052,-0.0083 2.04028,0.0055 3.02194,-0.267036 2.73304,-1.103738 0.14613,-0.08187 -6.01681,3.583594 -0.11771,0.07002 0.26085,-0.08802 0.38119,-0.153464 0.33234,-0.180782 0.3416,-0.254111 0.56922,-0.548105 0.0778,-0.100473 0.15526,-0.201203 0.23289,-0.301805 0.26148,-1.51419 -1.00338,-2.801506 -1.85801,-3.913841 0,0 6.80061,-4.095935 6.80061,-4.095935 z"
       inkscape:connector-curvature="0"
       style="stroke-width:0.26458332" />
    <path
       id="path3894"
       d="m 310.05881,-51.295864 c -1.38274,-3.799544 -2.88827,-7.556627 -4.37801,-11.316359 -1.53572,-3.916272 -3.06374,-7.833294 -4.48228,-11.793818 -2.58807,-7.023923 -5.955,-13.721471 -8.9264,-20.583792 -0.95885,-2.447062 -2.21629,-4.918218 -2.08114,-7.608857 0.34722,-1.92756 2.22533,-2.82969 3.71401,-3.83227 5.70857,-3.6725 10.88689,-8.03573 15.88241,-12.61073 3.60138,-3.35682 7.29067,-6.67007 10.26472,-10.61516 0.36132,-0.63077 1.80679,-2.21256 1.75967,-3.00563 -0.006,-0.0935 -0.0912,-0.16355 -0.13679,-0.24532 -0.19222,-0.1778 -0.36791,-0.37537 -0.57666,-0.53341 -0.79711,-0.60341 -2.03716,-1.30993 -2.85547,-1.78173 -2.34547,-1.35235 -4.73707,-2.62267 -7.10453,-3.93584 -3.81741,-2.16727 -7.39085,-4.70896 -10.73201,-7.54881 -1.45539,-1.25321 -2.78553,-2.64368 -4.24648,-3.88931 -1.0941,-0.86402 -1.60636,-1.93045 -1.94723,-3.26201 -0.0151,-0.5166 -0.0984,-1.03569 -0.0456,-1.54981 0.19706,-1.91748 0.85915,-4.01925 1.44697,-5.81191 1.5053,-4.59046 3.3799,-9.03681 5.23375,-13.49325 2.71053,-6.26604 5.68497,-12.50074 9.93167,-17.88405 0.85455,-1.01254 1.81922,-1.94075 2.97857,-2.59943 3.61506,-2.05388 5.75231,-3.74531 9.18507,-4.77905 1.35482,-0.44711 2.58193,-1.18299 3.86349,-1.79399 -6.43945,3.68209 -8.35109,4.82372 -5.80355,3.30734 0,0 7.41407,-2.85085 7.41407,-2.85085 v 0 c -2.92523,1.68176 -0.32313,0.18568 -7.80468,4.49111 -1.27246,0.64393 -2.55341,1.28535 -3.92289,1.70053 -2.74839,0.98302 -5.31038,2.94122 4.40838,-2.90512 0.32364,-0.19468 -0.67871,0.33475 -0.99796,0.53655 -1.11093,0.70221 -1.20975,0.90451 -2.1885,1.85644 -1.18512,1.38903 -1.73117,1.96146 -2.80591,3.54384 -3.03831,4.47344 -5.42017,9.37328 -7.59729,14.3074 -1.82851,4.39542 -3.63707,8.77285 -5.05934,13.32108 -0.52618,1.68263 -1.13377,3.68602 -1.32157,5.48351 -0.0471,0.45104 0.0214,0.90675 0.032,1.36013 0.29705,1.18608 0.77748,2.0625 1.74006,2.83606 1.40136,1.29145 2.72145,2.66774 4.13435,3.94728 3.24062,2.8529 6.74719,5.37257 10.50869,7.50169 3.65866,2.02833 1.18965,0.67879 4.92033,2.66889 1.78038,0.94973 3.74618,1.83848 5.3568,3.07926 0.27178,0.20939 0.49403,0.47621 0.74108,0.71432 0.132,0.23563 0.3217,0.44723 0.39605,0.70689 0.28334,0.98941 -1.24881,2.699 -1.71778,3.40698 -3.00067,4.08179 -6.82771,7.44128 -10.51944,10.87783 -4.90701,4.53391 -9.96177,8.90305 -15.54117,12.6015 -1.9294,1.27905 -0.5856,0.37354 -2.18173,1.47889 -0.68292,0.47293 -1.39049,0.86661 -1.70685,1.68042 -0.4594,2.55119 0.89794,5.03202 1.65412,7.390924 2.77752,6.95887 6.04382,13.705422 8.90392,20.628996 1.51656,3.912536 3.20053,7.758353 4.5898,11.719573 1.45632,3.763314 2.8964,7.532642 4.54091,11.218942 0,0 -6.91967,3.864131 -6.91967,3.864131 z"
       inkscape:connector-curvature="0"
       style="stroke-width:0.26458332" />
    <ellipse
       id="path3898"
       cx="216.59393"
       cy="192.65613"
       rx="20.806574"
       ry="11.032883"
       style="stroke-width:0.26458332" />
    <ellipse
       id="path3900"
       cx="297.61975"
       cy="188.49249"
       rx="18.567507"
       ry="10.164229"
       style="stroke-width:0.26458332" />
    <path
       id="path3902"
       d="m 138.77128,-27.742037 c -2.24785,-1.636792 -4.09354,-3.669308 -5.86848,-5.783342 -1.09962,-1.276088 -1.67618,-2.847438 -2.37256,-4.348432 -0.71939,-1.389531 -0.95882,-2.900894 -0.97272,-4.447889 0.11642,-0.915721 0.35109,-2.138112 1.24649,-2.655385 10.05622,-5.809472 6.42072,-5.228979 11.00418,-5.848231 0.92149,-0.05945 1.99159,-0.212672 2.86881,0.196945 0.10482,0.04895 1.07013,0.774766 1.20272,0.873567 0.98349,0.85644 1.71098,1.90146 2.39216,3.001904 1.06738,1.064356 1.56946,2.436204 2.1614,3.778917 -0.52698,1.149839 1.76279,-0.635056 1.37317,-0.419455 -8.68353,4.805069 -11.90704,7.30476 -8.53416,4.731118 1.00168,-0.789509 1.76168,-1.826842 2.78516,-2.587318 5.7229,-3.994965 20.83618,-11.832584 1.44993,-0.984927 -0.1836,0.102735 0.32591,-0.266166 0.48707,-0.401418 0.56234,-0.471951 0.37389,-0.305713 0.89505,-0.838229 3.73585,-3.771128 8.28885,-6.37462 13.38092,-6.645675 1.46075,-0.0947 2.7518,0.868321 3.76402,1.838995 0.79771,0.931254 1.37714,1.994686 1.96195,3.064544 0.62752,1.253514 0.76072,2.647286 0.85295,4.023963 0.14767,1.534888 -0.016,3.030387 -0.51999,4.483624 -0.57001,1.458878 -1.40203,2.786295 -2.24408,4.099023 -0.73985,1.055637 -1.46996,2.141215 -2.50521,2.927056 -3.48661,2.871132 -7.35373,5.771978 -11.84082,6.440765 0,0 8.94798,-6.826765 8.94798,-6.826765 v 0 c 0.37348,-0.126588 1.43251,-0.653688 1.09257,-0.453793 -5.56964,3.275166 -12.37405,7.190896 -8.64785,5.045938 1.19517,-1.050367 -0.35336,0.2516 0.93853,-0.648825 0.71086,-0.495456 1.17564,-1.357635 1.70592,-2.017836 0.94455,-1.167062 1.64567,-2.505597 2.3524,-3.824896 0.54526,-1.321287 0.92463,-2.60517 0.73244,-4.062347 -0.0581,-1.212733 -0.10809,-2.459659 -0.63273,-3.577841 -0.52226,-0.959297 -1.02377,-1.926593 -1.76368,-2.742345 -0.96187,-0.806945 -1.93791,-1.316914 -3.23013,-1.077138 -0.66345,0.08785 -1.31917,0.173281 -1.94465,0.428313 -0.18914,0.07712 -0.72513,0.3755 -0.54928,0.2716 7.56431,-4.469394 12.23632,-7.075987 8.56162,-5.022297 -0.47145,0.40712 -0.81851,0.981896 -1.35397,1.307354 -8.04571,4.890302 -18.00833,10.630755 -0.96258,0.696817 0.16199,-0.09441 -0.32141,0.193175 -0.48211,0.289764 -1.12166,1.008962 0.2698,-0.183078 -0.95375,0.679405 -0.72016,0.507643 -1.1988,1.335336 -1.84232,1.927236 -3.50425,2.931324 -1.34962,1.179933 -10.72977,6.436151 -0.91658,0.513611 -1.9013,-0.336484 -2.34582,-1.042848 -0.57401,-1.303454 -1.03628,-2.612776 -2.09511,-3.635126 -0.60307,-0.97019 -1.23011,-1.907474 -2.14707,-2.615157 -1.09579,-0.705758 -2.2864,-0.617657 -3.52376,-0.298006 -3.95402,1.40239 -0.2224,0.122402 8.42644,-5.049229 0.18083,-0.108127 -0.40582,0.120719 -0.59473,0.214014 -0.62546,0.308901 -0.95001,0.788492 -1.11841,1.455573 -0.12049,1.378556 0.12788,2.729489 0.74127,3.976288 0.65078,1.416571 1.15949,2.912084 2.18249,4.127709 1.67973,2.090126 3.48577,4.055983 5.74864,5.541806 0,0 -9.48054,5.996361 -9.48054,5.996361 z"
       inkscape:connector-curvature="0"
       style="stroke-width:0.26458332" />
    <path
       id="path3904"
       d="m 150.24863,-32.411629 c 1.84278,-1.656879 3.91043,-3.07028 5.62313,-4.866542 0.80301,-1.1762 1.00818,-1.439105 -0.40123,-1.644128 -1.41299,-0.139425 -2.83605,-0.108821 -4.25393,-0.099 0,0 9.08885,-6.606561 9.08885,-6.606561 v 0 c 1.49114,0.0036 3.01149,-0.03376 4.46328,0.35587 1.61119,0.677373 2.32001,1.965116 1.40692,3.603667 -1.45139,2.057802 -3.72038,3.311374 -5.52177,5.039995 0,0 -10.40525,4.216701 -10.40525,4.216701 z"
       inkscape:connector-curvature="0"
       style="stroke-width:0.26458332" />
    <path
       id="path3906"
       d="m 145.97396,-21.603746 c -0.21147,-2.749304 -0.4463,-5.496605 -0.57262,-8.25146 -0.11347,-2.136918 0.0673,-4.293293 0.57192,-6.372656 0.36877,-1.375079 1.28658,-2.463676 2.17129,-3.538757 0.65552,-0.690452 1.29517,-1.395132 2.00131,-2.034392 0,0 10.4903,-4.105002 10.4903,-4.105002 v 0 c -0.8652,0.398033 -1.48236,1.108104 -2.09651,1.818997 -0.98249,0.838835 -1.76139,1.929045 -2.43168,3.026656 -0.58699,1.975157 -0.88007,4.024664 -0.77408,6.092108 0.10177,2.724097 0.24264,5.450419 0.58833,8.156157 0,0 -9.94826,5.208349 -9.94826,5.208349 z"
       inkscape:connector-curvature="0"
       style="stroke-width:0.26458332" />
  </g>
</svg>
