<?xml version="1.0" encoding="UTF-8" standalone="no"?>
<!-- Created with Inkscape (http://www.inkscape.org/) -->

<svg
   xmlns:dc="http://purl.org/dc/elements/1.1/"
   xmlns:cc="http://creativecommons.org/ns#"
   xmlns:rdf="http://www.w3.org/1999/02/22-rdf-syntax-ns#"
   xmlns:svg="http://www.w3.org/2000/svg"
   xmlns="http://www.w3.org/2000/svg"
   xmlns:sodipodi="http://sodipodi.sourceforge.net/DTD/sodipodi-0.dtd"
   xmlns:inkscape="http://www.inkscape.org/namespaces/inkscape"
   width="512mm"
   height="512mm"
   viewBox="0 0 512 512"
   version="1.1"
   id="svg8"
   inkscape:version="0.92.4 (5da689c313, 2019-01-14)"
   sodipodi:docname="bumcss-logo-with-text.svg">
  <defs
     id="defs2" />
  <sodipodi:namedview
     id="base"
     pagecolor="#ffffff"
     bordercolor="#666666"
     borderopacity="1.0"
     inkscape:pageopacity="0.0"
     inkscape:pageshadow="2"
     inkscape:zoom="0.175"
     inkscape:cx="388.33147"
     inkscape:cy="985.35767"
     inkscape:document-units="px"
     inkscape:current-layer="layer1"
     showgrid="false"
     inkscape:window-width="1920"
     inkscape:window-height="1017"
     inkscape:window-x="-8"
     inkscape:window-y="-8"
     inkscape:window-maximized="1"
     inkscape:snap-nodes="false"
     inkscape:snap-global="false" />
  <metadata
     id="metadata5">
    <rdf:RDF>
      <cc:Work
         rdf:about="">
        <dc:format>image/svg+xml</dc:format>
        <dc:type
           rdf:resource="http://purl.org/dc/dcmitype/StillImage" />
        <dc:title></dc:title>
      </cc:Work>
    </rdf:RDF>
  </metadata>
  <g
     inkscape:label="Ebene 1"
     inkscape:groupmode="layer"
     id="layer1"
     transform="translate(0,215)">
    <ellipse
       id="path3725"
       cx="270.80429"
       cy="-28.623276"
       rx="42.005268"
       ry="37.859646"
       style="stroke-width:0.40473571" />
    <ellipse
       id="path3757"
       cx="266.66281"
       cy="1.339456"
       rx="53.394356"
       ry="25.394146"
       style="stroke-width:0.40542853"
       transform="matrix(0.97392503,-0.22687009,0.30651318,0.95186641,0,0)" />
    <ellipse
       id="path3763"
       cx="257.90286"
       cy="-33.247589"
       rx="35.498859"
       ry="13.452102"
       style="stroke-width:0.40522185"
       transform="matrix(0.98232745,-0.18717046,0.25470493,0.96701882,0,0)"
       inkscape:transform-center-x="-8.8663143"
       inkscape:transform-center-y="-2.262343" />
    <ellipse
       id="path3769"
       cx="270.50003"
       cy="80.355209"
       rx="72.098587"
       ry="81.051628"
       style="stroke-width:0.40473571" />
    <rect
       id="rect3783"
       width="23.403137"
       height="60.170834"
       x="275.54092"
       y="131.95543"
       style="stroke-width:0.19527057"
       transform="matrix(0.99725978,0.07397928,-0.30087457,0.95366372,0,0)"
       ry="10.090061" />
    <rect
       id="rect3783-8"
       width="17.674053"
       height="73.96508"
       x="-25.640285"
       y="320.77448"
       style="stroke-width:0.18814303"
       transform="matrix(0.57715032,-0.81663793,0.93055663,0.36614801,0,0)"
       ry="9.1861506" />
    <rect
       id="rect3783-8-7"
       width="18.038755"
       height="114.21348"
       x="214.5051"
       y="178.37816"
       style="stroke-width:0.30054435;paint-order:markers fill stroke"
       transform="matrix(0.83937396,-0.54355437,0.62500253,0.78062273,0,0)"
       ry="8.5691252" />
    <rect
       id="rect3783-8-6"
       width="21.369078"
       height="88.575691"
       x="342.32358"
       y="16.409029"
       style="stroke-width:0.24478184"
       transform="matrix(0.99995659,0.0093177,0.1470053,0.9891357,0,0)"
       ry="8.2446318" />
    <rect
       id="rect3831"
       width="249.69977"
       height="7.3756647"
       x="119.33056"
       y="-58.58654"
       style="stroke-width:0.31602362"
       transform="matrix(0.96683514,0.25540129,-0.39632577,0.91810995,0,0)" />
    <ellipse
       id="path3833"
       cx="132.82561"
       cy="31.925129"
       rx="40.751373"
       ry="65.97348"
       style="stroke-width:0.40473571"
       inkscape:transform-center-x="12.095238"
       inkscape:transform-center-y="-9.0714428" />
    <rect
       id="rect3783-8-69"
       width="20.958637"
       height="71.744675"
       x="369.91391"
       y="13.787994"
       style="stroke-width:0.2017823"
       transform="matrix(0.93697101,0.34940711,-0.29835444,0.95445515,0,0)"
       ry="10.726011" />
    <rect
       id="rect3783-89"
       width="22.528328"
       height="64.05098"
       x="319.18198"
       y="132.9588"
       style="stroke-width:0.197667"
       transform="matrix(0.96205269,0.27286373,-0.63204316,0.77493318,0,0)"
       ry="10.301721" />
    <path
       id="path3880"
       d="m 299.64736,-22.135946 c 4.43149,-0.500667 8.881,-0.96061 13.25501,-1.759965 2.58498,-0.570542 5.20121,-0.93645 7.86346,-1.075244 1.95384,-0.04739 3.72874,0.0085 5.63586,-0.375154 1.62625,-0.305812 3.18961,-0.904751 4.65997,-1.568172 1.69278,-0.660961 3.53343,-0.946983 5.32146,-1.362172 2.59435,-0.54738 4.90509,-1.630946 7.27393,-2.642336 2.00303,-0.92163 4.35767,-1.133044 6.26185,-2.206451 0.21833,-0.101889 0.8707,-0.411449 0.65495,-0.305658 -35.79183,17.551573 26.93184,-13.370724 -9.10964,4.320487 0,0 12.29462,-4.118707 12.29462,-4.118707 v 0 c -38.38015,19.192729 26.77388,-13.30871 -14.12281,7.131796 -2.06453,0.718077 -4.2225,1.237242 -6.19899,2.133426 -2.41492,1.029311 -4.86902,1.957083 -7.49982,2.517535 -1.76115,0.4228 -3.56163,0.745337 -5.1762,1.517084 -1.57704,0.580576 -3.16892,1.149737 -4.88667,1.3477 -1.88332,0.230662 -3.79387,0.09317 -5.68663,0.253755 -2.59243,0.205926 -5.13515,0.656203 -7.67852,1.121912 -4.45327,0.683642 -8.94019,1.202863 -13.42345,1.721931 0,0 10.56162,-6.651767 10.56162,-6.651767 z"
       inkscape:connector-curvature="0"
       style="stroke-width:0.40473571" />
    <path
       id="path3882"
       d="m 341.88882,-29.001471 c -2.92393,-0.03728 -5.84842,-0.01989 -8.77261,-0.01077 -2.32362,-0.07179 -3.76822,-1.037878 -4.59662,-2.823622 -0.40137,-1.380317 -0.0885,-2.584942 1.27871,-3.427682 6.68473,-3.889805 9.77554,-6.0347 16.38075,-6.332069 1.77353,-0.103478 3.48458,-0.08255 5.21228,0.262119 1.29146,0.44509 2.24345,1.286233 3.56827,1.661005 0.80449,0.391087 0.40256,0.214429 1.2034,0.533832 0,0 -11.02778,6.186072 -11.02778,6.186072 v 0 c -0.78798,-0.337252 -0.402,-0.178579 -1.15692,-0.477725 -1.15835,-0.475337 -2.13738,-1.238147 -3.41408,-1.484765 -1.6496,-0.224842 -3.32618,-0.104034 -4.98652,-0.01978 -5.40768,0.490682 -12.58508,4.653645 6.53381,-4.378366 -1.30542,0.557612 -2.12063,0.544336 -2.05351,2.032305 0.61429,1.57034 1.86387,1.663555 3.67915,1.705558 2.93575,0.0093 5.87181,0.02619 8.80738,-0.01073 0,0 -10.65571,6.584637 -10.65571,6.584637 z"
       inkscape:connector-curvature="0"
       style="stroke-width:0.40473571" />
    <path
       id="path3884"
       d="m 355.33422,-38.322093 c 1.67486,1.885275 3.41104,3.822553 3.56793,6.251135 -0.16782,0.795763 -0.52593,1.910319 -1.43511,2.362733 -11.69029,5.817161 -7.48306,5.176565 -12.78153,5.881303 -1.7281,0.16123 -3.47034,0.138226 -5.20607,0.13247 -1.76319,-0.07719 -3.56044,0.139991 -5.29433,-0.170924 -1.46883,-0.15924 -2.48246,-1.103941 -3.74533,-1.640971 0,0 11.07132,-6.132016 11.07132,-6.132016 v 0 c 1.09913,0.574423 2.10365,1.244691 3.45384,1.303586 1.72271,0.08281 3.45116,0.02773 5.17588,0.04922 1.67615,-0.01171 3.38419,0.0078 5.01245,-0.376725 4.53326,-1.557111 0.2424,-0.115498 -9.97999,5.055599 -0.19524,0.0988 0.43267,-0.124176 0.63227,-0.216501 0.55125,-0.255041 0.5666,-0.358491 0.94414,-0.773246 0.12906,-0.141743 0.25753,-0.28385 0.38632,-0.425775 0.43369,-2.136161 -1.66431,-3.952259 -3.08187,-5.521498 0,0 11.28008,-5.77839 11.28008,-5.778391 z"
       inkscape:connector-curvature="0"
       style="stroke-width:0.40473571" />
    <path
       id="path3894"
       d="m 345.55469,-61.388545 c -2.29355,-3.850109 -4.79075,-7.657194 -7.26175,-11.466961 -2.54727,-3.968391 -5.0818,-7.937541 -7.4347,-11.950773 -4.29279,-7.117399 -9.87749,-13.904081 -14.80611,-20.857731 -1.59044,-2.47962 -3.67613,-4.98367 -3.45196,-7.71012 0.57594,-1.95321 3.69113,-2.86735 6.1604,-3.88326 9.46871,-3.72138 18.05793,-8.14267 26.34393,-12.77855 5.97356,-3.40152 12.09295,-6.75885 17.02597,-10.75644 0.59931,-0.63917 2.99688,-2.24201 2.91873,-3.04564 -0.0112,-0.0948 -0.15128,-0.16573 -0.22689,-0.24858 -0.31882,-0.18017 -0.61024,-0.38037 -0.9565,-0.54051 -1.32215,-0.61144 -3.37903,-1.32735 -4.73633,-1.80544 -3.8904,-1.37033 -7.85731,-2.65758 -11.78419,-3.98822 -6.3319,-2.19613 -12.2591,-4.77163 -17.80106,-7.64927 -2.41403,-1.2699 -4.62031,-2.67887 -7.04357,-3.94106 -1.81475,-0.87554 -2.66446,-1.95615 -3.22985,-3.30543 -0.0249,-0.52347 -0.16321,-1.04948 -0.0756,-1.57045 0.32688,-1.94298 1.42507,-4.07272 2.40009,-5.88925 2.49681,-4.65155 5.60619,-9.15706 8.68115,-13.67282 4.49593,-6.34943 9.42958,-12.66711 16.47353,-18.12204 1.41743,-1.02603 3.01751,-1.9666 4.94052,-2.63404 5.99625,-2.08121 9.54127,-3.79515 15.23516,-4.84265 2.24722,-0.45305 4.28262,-1.19874 6.40832,-1.81786 -10.68105,3.73111 -13.85185,4.88792 -9.62628,3.35135 0,0 12.29763,-2.88878 12.29763,-2.88878 v 0 c -4.85205,1.70413 -0.53597,0.18815 -12.94553,4.55086 -2.11061,0.6525 -4.23531,1.30246 -6.50685,1.72317 -4.55871,0.99609 -8.80825,2.98038 7.31213,-2.94378 0.53681,-0.19727 -1.12577,0.33921 -1.65531,0.54368 -1.84269,0.71156 -2.0066,0.91656 -3.63003,1.88115 -1.96576,1.40752 -2.87148,1.98757 -4.65413,3.59101 -5.03962,4.53297 -8.99037,9.49801 -12.60151,14.49781 -3.03295,4.45391 -6.03278,8.8896 -8.39188,13.49836 -0.87276,1.70502 -1.88056,3.73507 -2.19207,5.55648 -0.0781,0.45704 0.0355,0.91882 0.0532,1.37824 0.4927,1.20186 1.28958,2.08994 2.88623,2.8738 2.3244,1.30864 4.51402,2.70324 6.85758,3.9998 5.37517,2.89088 11.19148,5.44409 17.43064,7.60152 6.06856,2.05534 1.97324,0.68784 8.16126,2.70442 2.95311,0.96237 6.21376,1.86296 8.88528,3.12025 0.45079,0.21216 0.81943,0.48254 1.22921,0.72381 0.21895,0.23878 0.5336,0.45319 0.65693,0.7163 0.46995,1.00259 -2.07139,2.73492 -2.84927,3.45232 -4.97718,4.13612 -11.32503,7.54032 -17.44845,11.0226 -8.1392,4.59425 -16.52346,9.02154 -25.77794,12.76921 -3.20027,1.29607 -0.97134,0.37852 -3.61881,1.49857 -1.13274,0.47922 -2.30639,0.87815 -2.83113,1.70279 -0.762,2.58514 1.4894,5.09898 2.74367,7.48928 4.60703,7.05148 10.02481,13.887816 14.76879,20.903531 2.51552,3.964604 5.30869,7.861603 7.61306,11.875541 2.4156,3.813395 4.80422,7.632889 7.53196,11.368247 0,0 -11.47757,3.915556 -11.47757,3.915556 z"
       inkscape:connector-curvature="0"
       style="stroke-width:0.34301683" />
    <ellipse
       id="path3898"
       cx="210.89212"
       cy="236.15092"
       rx="34.511597"
       ry="15.564771"
       style="stroke-width:0.40473571" />
    <ellipse
       id="path3900"
       cx="346.25131"
       cy="209.7063"
       rx="30.797686"
       ry="14.339311"
       style="stroke-width:0.40473571" />
    <path
       id="path3902"
       d="m 114.35895,-20.600182 c -3.72849,-2.309123 -6.78991,-5.176519 -9.73397,-8.158919 -1.82393,-1.800256 -2.78027,-4.017056 -3.93535,-6.134602 -1.193242,-1.960297 -1.590387,-4.092472 -1.613432,-6.274913 0.193112,-1.291864 0.582345,-3.016367 2.067532,-3.746115 16.68013,-8.195786 10.64997,-7.376847 18.25249,-8.250464 1.52846,-0.08387 3.30341,-0.300029 4.75846,0.277843 0.17385,0.06905 1.77501,1.093011 1.99493,1.232396 1.63129,1.208233 2.83798,2.682506 3.96785,4.23497 1.77045,1.501554 2.60325,3.436906 3.58508,5.331154 -0.8741,1.622149 2.92392,-0.895915 2.27765,-0.591751 -14.40324,6.778809 -19.75003,10.305277 -14.15549,6.674481 1.66147,-1.113808 2.92208,-2.577239 4.61971,-3.65009 9.49251,-5.635945 34.5607,-16.69296 2.40497,-1.389497 -0.30453,0.144933 0.5406,-0.375498 0.80791,-0.566305 0.93274,-0.665811 0.62016,-0.431288 1.48461,-1.182542 6.19659,-5.320163 13.7486,-8.993073 22.19475,-9.375466 2.42293,-0.1336 4.56438,1.224995 6.24333,2.594383 1.32316,1.313779 2.28425,2.814027 3.25427,4.323344 1.04085,1.768409 1.26179,3.734689 1.41478,5.676854 0.24493,2.165362 -0.0265,4.275155 -0.86251,6.325326 -0.94548,2.058129 -2.32553,3.930799 -3.72222,5.782745 -1.22718,1.489254 -2.4382,3.020746 -4.15536,4.12938 -5.78319,4.050484 -12.19752,8.142888 -19.64023,9.086387 0,0 14.84191,-9.630939 14.84191,-9.630939 v 0 c 0.61949,-0.178588 2.37609,-0.9222 1.81223,-0.640196 -9.23829,4.62048 -20.52469,10.144643 -14.34407,7.118619 1.98241,-1.481819 -0.58612,0.354948 1.55672,-0.915338 1.17908,-0.69897 1.95002,-1.9153 2.82959,-2.846686 1.56671,-1.646448 2.72964,-3.534802 3.90191,-5.396018 0.9044,-1.864023 1.53368,-3.675276 1.21488,-5.731006 -0.0963,-1.710877 -0.1793,-3.469994 -1.0495,-5.047483 -0.86628,-1.353339 -1.69812,-2.717963 -2.9254,-3.868795 -1.59544,-1.138408 -3.2144,-1.857853 -5.35777,-1.519585 -1.10047,0.123936 -2.18811,0.244458 -3.22557,0.604247 -0.31373,0.108794 -1.20276,0.529742 -0.91109,0.383164 12.54682,-6.305252 20.29624,-9.982536 14.20106,-7.085267 -0.78199,0.574349 -1.35765,1.385222 -2.24582,1.844364 -13.3453,6.899054 -29.87018,14.997467 -1.59661,0.983044 0.26867,-0.13319 -0.53313,0.272523 -0.79967,0.408789 -1.86047,1.423405 0.44753,-0.25828 -1.58198,0.958479 -1.19454,0.716163 -1.98843,1.88384 -3.05584,2.718871 -5.81245,4.1354 -2.2386,1.664605 -17.79733,9.079878 -1.52031,0.724582 -3.15364,-0.474699 -3.89097,-1.471211 -0.9521,-1.838864 -1.71886,-3.686005 -3.47513,-5.128299 -1.00031,-1.368706 -2.04036,-2.690991 -3.56132,-3.689362 -1.81756,-0.995658 -3.79241,-0.871367 -5.84481,-0.420417 -6.55849,1.978439 -0.3689,0.172681 13.97682,-7.123259 0.29995,-0.152543 -0.67313,0.170303 -0.98646,0.301921 -1.03745,0.435787 -1.57577,1.112375 -1.85511,2.053467 -0.19985,1.944815 0.21213,3.85066 1.22955,5.609598 1.07945,1.998445 1.92323,4.108257 3.62006,5.823214 2.78614,2.948671 5.78179,5.722027 9.53519,7.81817 0,0 -15.72523,8.459437 -15.72523,8.459437 z"
       inkscape:connector-curvature="0"
       style="stroke-width:0.40473571" />
    <path
       id="path3904"
       d="m 133.39625,-27.187864 c 3.05661,-2.337461 6.48619,-4.331435 9.32703,-6.865533 1.33195,-1.659339 1.67225,-2.030233 -0.66553,-2.319472 -2.34369,-0.196698 -4.70409,-0.153522 -7.05593,-0.139667 0,0 15.07556,-9.320285 15.07556,-9.320285 v 0 c 2.47334,0.0052 4.99512,-0.04764 7.4032,0.502047 2.67245,0.955613 3.84817,2.772311 2.33363,5.083917 -2.4074,2.903069 -6.17095,4.671561 -9.15889,7.110234 0,0 -17.25907,5.948762 -17.25907,5.948762 z"
       inkscape:connector-curvature="0"
       style="stroke-width:0.40473571" />
    <path
       id="path3906"
       d="m 126.30592,-11.940513 c -0.35076,-3.878613 -0.74028,-7.754402 -0.94979,-11.640846 -0.18821,-3.014684 0.11165,-6.056815 0.94864,-8.990302 0.61166,-1.939909 2.13402,-3.475662 3.60148,-4.992344 1.08731,-0.974063 2.1483,-1.968199 3.31954,-2.870042 0,0 17.40015,-5.791183 17.40015,-5.791183 v 0 c -1.43511,0.561532 -2.45878,1.563271 -3.47747,2.566173 -1.62964,1.183397 -2.92159,2.721423 -4.03339,4.269891 -0.97361,2.786477 -1.45977,5.677844 -1.28396,8.594515 0.16879,3.843052 0.40246,7.689244 0.97585,11.506397 0,0 -16.50105,7.347741 -16.50105,7.347741 z"
       inkscape:connector-curvature="0"
       style="stroke-width:0.40473571" />
    <text
       xml:space="preserve"
       style="font-style:normal;font-weight:normal;font-size:38.85463333px;line-height:1.25;font-family:sans-serif;letter-spacing:0px;word-spacing:0px;fill:#000000;fill-opacity:1;stroke:none;stroke-width:0.40473571"
       x="265.31"
       y="350.58841"
       id="text3910"
       transform="scale(1.0843147,0.92224147)"><tspan
         sodipodi:role="line"
         id="tspan3908"
         x="265.31"
         y="386.03668"
         style="stroke-width:0.40473571"></tspan></text>
    <text
       xml:space="preserve"
       style="font-style:normal;font-weight:normal;font-size:77.70926666px;line-height:1.25;font-family:sans-serif;letter-spacing:0px;word-spacing:0px;fill:#000000;fill-opacity:1;stroke:none;stroke-width:0.40473571"
       x="242.42267"
       y="307.82404"
       id="text3914"
       transform="scale(1.0843147,0.92224147)"><tspan
         sodipodi:role="line"
         id="tspan3912"
         x="242.42267"
         y="307.82404"
         style="stroke-width:0.40473571">CSS</tspan></text>
  </g>
</svg>
